<svg width="170" height="170" viewBox="0 0 170 170" fill="none" xmlns="http://www.w3.org/2000/svg">
<rect width="170" height="170" fill="#F0DB4F"/>
<path d="M49.016 54.512C48.504 53.824 47.872 53.312 47.12 52.976C46.368 52.624 45.584 52.448 44.768 52.448C43.824 52.448 42.952 52.64 42.152 53.024C41.368 53.408 40.688 53.928 40.112 54.584C39.536 55.224 39.088 55.976 38.768 56.84C38.448 57.688 38.288 58.576 38.288 59.504C38.288 60.496 38.448 61.424 38.768 62.288C39.088 63.136 39.528 63.88 40.088 64.52C40.664 65.144 41.344 65.64 42.128 66.008C42.928 66.376 43.808 66.56 44.768 66.56C45.808 66.56 46.736 66.36 47.552 65.96C48.368 65.544 49.08 64.952 49.688 64.184L51.2 65.456C50.432 66.48 49.504 67.232 48.416 67.712C47.344 68.192 46.128 68.432 44.768 68.432C43.552 68.432 42.416 68.208 41.36 67.76C40.304 67.312 39.384 66.696 38.6 65.912C37.832 65.112 37.224 64.168 36.776 63.08C36.344 61.992 36.128 60.8 36.128 59.504C36.128 58.256 36.336 57.088 36.752 56C37.184 54.912 37.784 53.968 38.552 53.168C39.32 52.368 40.232 51.736 41.288 51.272C42.344 50.808 43.504 50.576 44.768 50.576C45.92 50.576 47.024 50.784 48.08 51.2C49.152 51.616 50.048 52.296 50.768 53.24L49.016 54.512ZM53.6744 59.432C53.6744 58.92 53.6584 58.44 53.6264 57.992C53.5944 57.544 53.5784 57.136 53.5784 56.768H55.3544C55.3544 57.072 55.3624 57.376 55.3784 57.68C55.3944 57.984 55.4024 58.296 55.4024 58.616H55.4504C55.5784 58.344 55.7544 58.08 55.9784 57.824C56.2184 57.568 56.4984 57.344 56.8184 57.152C57.1384 56.944 57.4984 56.784 57.8984 56.672C58.2984 56.544 58.7304 56.48 59.1944 56.48C59.3224 56.48 59.4504 56.488 59.5784 56.504C59.7064 56.52 59.8344 56.552 59.9624 56.6L59.8424 58.496C59.5224 58.4 59.1864 58.352 58.8344 58.352C57.6824 58.352 56.8424 58.728 56.3144 59.48C55.8024 60.216 55.5464 61.232 55.5464 62.528V68H53.6744V59.432ZM62.2799 56.768H64.1519V68H62.2799V56.768ZM61.8479 52.376C61.8479 52.008 61.9759 51.688 62.2319 51.416C62.5039 51.144 62.8319 51.008 63.2159 51.008C63.5999 51.008 63.9199 51.144 64.1759 51.416C64.4479 51.688 64.5839 52.008 64.5839 52.376C64.5839 52.776 64.4559 53.104 64.1999 53.36C63.9439 53.616 63.6159 53.744 63.2159 53.744C62.8159 53.744 62.4879 53.616 62.2319 53.36C61.9759 53.104 61.8479 52.776 61.8479 52.376ZM68.1176 65.048C68.4856 65.512 68.8856 65.88 69.3176 66.152C69.7656 66.424 70.3256 66.56 70.9976 66.56C71.2856 66.56 71.5736 66.528 71.8616 66.464C72.1656 66.4 72.4376 66.296 72.6776 66.152C72.9176 66.008 73.1096 65.832 73.2536 65.624C73.3976 65.4 73.4696 65.136 73.4696 64.832C73.4696 64.528 73.3976 64.28 73.2536 64.088C73.1256 63.896 72.9496 63.736 72.7256 63.608C72.5016 63.464 72.2456 63.352 71.9576 63.272C71.6696 63.192 71.3736 63.12 71.0696 63.056C70.5416 62.944 70.0376 62.816 69.5576 62.672C69.0776 62.528 68.6536 62.344 68.2856 62.12C67.9336 61.88 67.6456 61.576 67.4216 61.208C67.2136 60.84 67.1096 60.368 67.1096 59.792C67.1096 59.248 67.2296 58.768 67.4696 58.352C67.7096 57.936 68.0296 57.592 68.4296 57.32C68.8296 57.048 69.2776 56.84 69.7736 56.696C70.2696 56.552 70.7816 56.48 71.3096 56.48C72.1096 56.48 72.8456 56.64 73.5176 56.96C74.2056 57.28 74.7416 57.8 75.1256 58.52L73.5656 59.552C73.3256 59.152 73.0056 58.832 72.6056 58.592C72.2216 58.336 71.7496 58.208 71.1896 58.208C70.9336 58.208 70.6696 58.24 70.3976 58.304C70.1416 58.368 69.9096 58.464 69.7016 58.592C69.4936 58.72 69.3176 58.888 69.1736 59.096C69.0456 59.288 68.9816 59.512 68.9816 59.768C68.9816 60.008 69.0536 60.216 69.1976 60.392C69.3576 60.552 69.5656 60.696 69.8216 60.824C70.0936 60.952 70.3976 61.064 70.7336 61.16C71.0856 61.256 71.4456 61.336 71.8136 61.4C72.3096 61.496 72.7816 61.624 73.2296 61.784C73.6776 61.928 74.0696 62.128 74.4056 62.384C74.7416 62.64 75.0056 62.96 75.1976 63.344C75.3896 63.728 75.4856 64.2 75.4856 64.76C75.4856 65.4 75.3576 65.944 75.1016 66.392C74.8456 66.84 74.5016 67.208 74.0696 67.496C73.6536 67.768 73.1736 67.968 72.6296 68.096C72.1016 68.224 71.5576 68.288 70.9976 68.288C70.0376 68.288 69.2056 68.144 68.5016 67.856C67.8136 67.552 67.1896 67 66.6296 66.2L68.1176 65.048ZM84.2403 58.352H80.9283V63.968C80.9283 64.336 80.9363 64.68 80.9523 65C80.9683 65.304 81.0323 65.576 81.1443 65.816C81.2563 66.04 81.4243 66.224 81.6483 66.368C81.8723 66.496 82.1923 66.56 82.6083 66.56C82.8803 66.56 83.1603 66.528 83.4483 66.464C83.7363 66.4 84.0083 66.304 84.2643 66.176L84.3363 67.88C84.0163 68.024 83.6563 68.128 83.2563 68.192C82.8723 68.256 82.5043 68.288 82.1523 68.288C81.4803 68.288 80.9443 68.2 80.5443 68.024C80.1443 67.848 79.8323 67.6 79.6083 67.28C79.3843 66.96 79.2323 66.568 79.1523 66.104C79.0883 65.624 79.0563 65.096 79.0563 64.52V58.352H76.6083V56.768H79.0563V53.576H80.9283V56.768H84.2403V58.352ZM86.7253 56.768H88.5973V68H86.7253V56.768ZM86.2933 52.376C86.2933 52.008 86.4213 51.688 86.6773 51.416C86.9493 51.144 87.2773 51.008 87.6613 51.008C88.0453 51.008 88.3653 51.144 88.6213 51.416C88.8933 51.688 89.0293 52.008 89.0293 52.376C89.0293 52.776 88.9013 53.104 88.6453 53.36C88.3893 53.616 88.0613 53.744 87.6613 53.744C87.2613 53.744 86.9333 53.616 86.6773 53.36C86.4213 53.104 86.2933 52.776 86.2933 52.376ZM92.1789 58.208C92.7549 57.616 93.4349 57.184 94.2189 56.912C95.0189 56.624 95.8269 56.48 96.6429 56.48C98.3069 56.48 99.5069 56.872 100.243 57.656C100.979 58.44 101.347 59.632 101.347 61.232V66.056C101.347 66.376 101.363 66.712 101.395 67.064C101.427 67.4 101.467 67.712 101.515 68H99.7149C99.6509 67.744 99.6109 67.464 99.5949 67.16C99.5949 66.84 99.5949 66.56 99.5949 66.32H99.5469C99.1789 66.896 98.6829 67.368 98.0589 67.736C97.4509 68.104 96.7149 68.288 95.8509 68.288C95.2749 68.288 94.7309 68.216 94.2189 68.072C93.7229 67.928 93.2829 67.72 92.8989 67.448C92.5309 67.16 92.2349 66.808 92.0109 66.392C91.7869 65.976 91.6749 65.496 91.6749 64.952C91.6749 64.024 91.9149 63.296 92.3949 62.768C92.8749 62.24 93.4669 61.848 94.1709 61.592C94.8909 61.336 95.6589 61.176 96.4749 61.112C97.3069 61.048 98.0669 61.016 98.7549 61.016H99.4749V60.68C99.4749 59.864 99.2269 59.248 98.7309 58.832C98.2509 58.416 97.5709 58.208 96.6909 58.208C96.0829 58.208 95.4829 58.312 94.8909 58.52C94.3149 58.712 93.8029 59.016 93.3549 59.432L92.1789 58.208ZM97.6029 62.6C96.4029 62.6 95.4509 62.768 94.7469 63.104C94.0429 63.44 93.6909 63.992 93.6909 64.76C93.6909 65.464 93.9229 65.968 94.3869 66.272C94.8669 66.56 95.4589 66.704 96.1629 66.704C96.7069 66.704 97.1789 66.616 97.5789 66.44C97.9949 66.248 98.3389 66 98.6109 65.696C98.8829 65.392 99.0909 65.04 99.2349 64.64C99.3789 64.224 99.4589 63.784 99.4749 63.32V62.6H97.6029ZM104.768 59.432C104.768 58.92 104.752 58.44 104.72 57.992C104.688 57.544 104.672 57.136 104.672 56.768H106.448C106.448 57.072 106.456 57.376 106.472 57.68C106.488 57.984 106.496 58.296 106.496 58.616H106.544C106.672 58.344 106.848 58.08 107.072 57.824C107.312 57.568 107.592 57.344 107.912 57.152C108.232 56.944 108.592 56.784 108.992 56.672C109.392 56.544 109.824 56.48 110.288 56.48C111.024 56.48 111.656 56.592 112.184 56.816C112.728 57.04 113.176 57.352 113.528 57.752C113.88 58.152 114.136 58.64 114.296 59.216C114.472 59.776 114.56 60.392 114.56 61.064V68H112.688V61.256C112.688 60.312 112.48 59.568 112.064 59.024C111.648 58.48 111 58.208 110.12 58.208C109.512 58.208 108.984 58.312 108.536 58.52C108.104 58.728 107.744 59.024 107.456 59.408C107.184 59.792 106.976 60.248 106.832 60.776C106.704 61.304 106.64 61.888 106.64 62.528V68H104.768V59.432Z" fill="#323330"/>
<path d="M18.2003 119.276C15.5986 118.287 14 116.475 14 114.519C14 112.221 14 111.272 14 107.201C14 105.441 15.2951 103.786 17.4856 102.749L25.8609 98.7814C31.2842 96.6337 38.239 99.1668 38.239 103.29V117.68C38.239 121.803 31.2842 124.336 25.8609 122.188L18.2003 119.276Z" fill="#323330"/>
<path fill-rule="evenodd" clip-rule="evenodd" d="M25.9237 122.02L25.9264 122.021C31.0628 124.078 37.6496 121.652 37.6496 117.704V103.296C37.6496 99.3508 31.0733 96.9257 25.9387 98.9737L17.6577 102.94C15.5794 103.936 14.3504 105.524 14.3504 107.212V114.539C14.3504 116.417 15.8674 118.155 18.336 119.104L25.9237 122.02ZM14 114.539C14 116.498 15.5829 118.312 18.1589 119.302L25.7439 122.218C31.1138 124.368 38 121.832 38 117.704V103.296C38 99.1682 31.1138 96.6321 25.7439 98.7824L17.4512 102.754C15.2824 103.793 14 105.45 14 107.212V114.539Z" fill="#323330"/>
<path d="M68 99H81.4703V121.774H68V99Z" fill="#AAAAAA"/>
<path fill-rule="evenodd" clip-rule="evenodd" d="M81.42 99.3163H68.2363V121.457H81.42V99.3163ZM68.2363 99L68.2363 121.774H81.7066V99H68.2363Z" fill="#323330"/>
<path d="M29 98H69V123H29V98Z" fill="#323330"/>
<path fill-rule="evenodd" clip-rule="evenodd" d="M68.6552 98.2294H29V122.771H68.6552V98.2294ZM29 98V123H69V98H29Z" fill="#323330"/>
<path d="M75.0862 103.552H83.1387V117.222H75.0862V103.552Z" fill="black"/>
<path fill-rule="evenodd" clip-rule="evenodd" d="M74.9614 103.338H83.2656V117.436H74.9614V103.338ZM75.2131 103.765V117.009H83.014V103.765H75.2131Z" fill="black"/>
<path d="M73.3247 107.396H75.3378V110.814V114.232H73.3247V107.396Z" fill="black"/>
<path fill-rule="evenodd" clip-rule="evenodd" d="M73.199 106.969H75.2121V110.601V114.232H73.199V110.601V106.969ZM73.4506 107.396V113.805H75.2121V107.396H73.4506Z" fill="black"/>
<line x1="8" y1="59.0271" x2="35.8859" y2="59.0271" stroke="#323330" stroke-width="2"/>
<line x1="9" y1="60.0271" x2="9" y2="114.973" stroke="#323330" stroke-width="2"/>
<line x1="8" y1="113.973" x2="14.3807" y2="113.973" stroke="#323330" stroke-width="2"/>
<path d="M91.112 102.008H95.456C96.272 102.008 97.08 102.056 97.88 102.152C98.696 102.248 99.424 102.456 100.064 102.776C100.704 103.096 101.224 103.568 101.624 104.192C102.024 104.8 102.224 105.632 102.224 106.688C102.224 107.936 101.848 108.944 101.096 109.712C100.344 110.48 99.304 110.968 97.976 111.176L102.8 119H100.328L95.72 111.368H93.128V119H91.112V102.008ZM93.128 109.496H94.928C95.488 109.496 96.064 109.48 96.656 109.448C97.264 109.416 97.816 109.312 98.312 109.136C98.824 108.96 99.24 108.688 99.56 108.32C99.896 107.936 100.064 107.392 100.064 106.688C100.064 106.08 99.944 105.592 99.704 105.224C99.464 104.856 99.144 104.576 98.744 104.384C98.36 104.176 97.92 104.04 97.424 103.976C96.944 103.912 96.456 103.88 95.96 103.88H93.128V109.496ZM104.8 113.384C104.8 112.504 104.952 111.704 105.256 110.984C105.56 110.264 105.976 109.648 106.504 109.136C107.032 108.608 107.664 108.2 108.4 107.912C109.136 107.624 109.936 107.48 110.8 107.48C111.664 107.48 112.464 107.624 113.2 107.912C113.936 108.2 114.568 108.608 115.096 109.136C115.624 109.648 116.04 110.264 116.344 110.984C116.648 111.704 116.8 112.504 116.8 113.384C116.8 114.264 116.648 115.064 116.344 115.784C116.04 116.504 115.624 117.128 115.096 117.656C114.568 118.168 113.936 118.568 113.2 118.856C112.464 119.144 111.664 119.288 110.8 119.288C109.936 119.288 109.136 119.144 108.4 118.856C107.664 118.568 107.032 118.168 106.504 117.656C105.976 117.128 105.56 116.504 105.256 115.784C104.952 115.064 104.8 114.264 104.8 113.384ZM106.816 113.384C106.816 113.976 106.904 114.528 107.08 115.04C107.272 115.536 107.544 115.976 107.896 116.36C108.248 116.728 108.664 117.024 109.144 117.248C109.64 117.456 110.192 117.56 110.8 117.56C111.408 117.56 111.952 117.456 112.432 117.248C112.928 117.024 113.352 116.728 113.704 116.36C114.056 115.976 114.32 115.536 114.496 115.04C114.688 114.528 114.784 113.976 114.784 113.384C114.784 112.792 114.688 112.248 114.496 111.752C114.32 111.24 114.056 110.8 113.704 110.432C113.352 110.048 112.928 109.752 112.432 109.544C111.952 109.32 111.408 109.208 110.8 109.208C110.192 109.208 109.64 109.32 109.144 109.544C108.664 109.752 108.248 110.048 107.896 110.432C107.544 110.8 107.272 111.24 107.08 111.752C106.904 112.248 106.816 112.792 106.816 113.384ZM119.698 110.432C119.698 109.92 119.682 109.44 119.65 108.992C119.618 108.544 119.602 108.136 119.602 107.768H121.378C121.378 108.072 121.386 108.376 121.402 108.68C121.418 108.984 121.426 109.296 121.426 109.616H121.474C121.602 109.344 121.778 109.08 122.002 108.824C122.242 108.568 122.522 108.344 122.842 108.152C123.162 107.944 123.522 107.784 123.922 107.672C124.322 107.544 124.754 107.48 125.218 107.48C125.954 107.48 126.586 107.592 127.114 107.816C127.658 108.04 128.106 108.352 128.458 108.752C128.81 109.152 129.066 109.64 129.226 110.216C129.402 110.776 129.49 111.392 129.49 112.064V119H127.618V112.256C127.618 111.312 127.41 110.568 126.994 110.024C126.578 109.48 125.93 109.208 125.05 109.208C124.442 109.208 123.914 109.312 123.466 109.52C123.034 109.728 122.674 110.024 122.386 110.408C122.114 110.792 121.906 111.248 121.762 111.776C121.634 112.304 121.57 112.888 121.57 113.528V119H119.698V110.432ZM142.37 117.008H142.322C141.97 117.648 141.41 118.192 140.642 118.64C139.89 119.072 139.01 119.288 138.002 119.288C137.218 119.288 136.482 119.144 135.794 118.856C135.106 118.552 134.506 118.136 133.994 117.608C133.498 117.08 133.106 116.456 132.818 115.736C132.53 115.016 132.386 114.232 132.386 113.384C132.386 112.536 132.53 111.752 132.818 111.032C133.106 110.312 133.506 109.688 134.018 109.16C134.53 108.632 135.146 108.224 135.866 107.936C136.602 107.632 137.41 107.48 138.29 107.48C139.106 107.48 139.85 107.648 140.522 107.984C141.21 108.32 141.81 108.792 142.322 109.4H142.37V100.856H144.242V119H142.37V117.008ZM142.37 113.384C142.37 112.792 142.274 112.248 142.082 111.752C141.906 111.24 141.642 110.8 141.29 110.432C140.938 110.048 140.514 109.752 140.018 109.544C139.538 109.32 138.994 109.208 138.386 109.208C137.778 109.208 137.226 109.32 136.73 109.544C136.25 109.752 135.834 110.048 135.482 110.432C135.13 110.8 134.858 111.24 134.666 111.752C134.49 112.248 134.402 112.792 134.402 113.384C134.402 113.976 134.49 114.528 134.666 115.04C134.858 115.536 135.13 115.976 135.482 116.36C135.834 116.728 136.25 117.024 136.73 117.248C137.226 117.456 137.778 117.56 138.386 117.56C138.994 117.56 139.538 117.456 140.018 117.248C140.514 117.024 140.938 116.728 141.29 116.36C141.642 115.976 141.906 115.536 142.082 115.04C142.274 114.528 142.37 113.976 142.37 113.384ZM147.562 109.208C148.138 108.616 148.818 108.184 149.602 107.912C150.402 107.624 151.21 107.48 152.026 107.48C153.69 107.48 154.89 107.872 155.626 108.656C156.362 109.44 156.73 110.632 156.73 112.232V117.056C156.73 117.376 156.746 117.712 156.778 118.064C156.81 118.4 156.85 118.712 156.898 119H155.098C155.034 118.744 154.994 118.464 154.978 118.16C154.978 117.84 154.978 117.56 154.978 117.32H154.93C154.562 117.896 154.066 118.368 153.442 118.736C152.834 119.104 152.098 119.288 151.234 119.288C150.658 119.288 150.114 119.216 149.602 119.072C149.106 118.928 148.666 118.72 148.282 118.448C147.914 118.16 147.618 117.808 147.394 117.392C147.17 116.976 147.058 116.496 147.058 115.952C147.058 115.024 147.298 114.296 147.778 113.768C148.258 113.24 148.85 112.848 149.554 112.592C150.274 112.336 151.042 112.176 151.858 112.112C152.69 112.048 153.45 112.016 154.138 112.016H154.858V111.68C154.858 110.864 154.61 110.248 154.114 109.832C153.634 109.416 152.954 109.208 152.074 109.208C151.466 109.208 150.866 109.312 150.274 109.52C149.698 109.712 149.186 110.016 148.738 110.432L147.562 109.208ZM152.986 113.6C151.786 113.6 150.834 113.768 150.13 114.104C149.426 114.44 149.074 114.992 149.074 115.76C149.074 116.464 149.306 116.968 149.77 117.272C150.25 117.56 150.842 117.704 151.546 117.704C152.09 117.704 152.562 117.616 152.962 117.44C153.378 117.248 153.722 117 153.994 116.696C154.266 116.392 154.474 116.04 154.618 115.64C154.762 115.224 154.842 114.784 154.858 114.32V113.6H152.986Z" fill="#323330"/>
</svg>
